<?xml version="1.0" encoding="UTF-8" standalone="no"?>
<!DOCTYPE svg PUBLIC "-//W3C//DTD SVG 1.1//EN" "http://www.w3.org/Graphics/SVG/1.1/DTD/svg11.dtd">
<svg width="100%" height="100%" viewBox="0 0 67 67" version="1.1" xmlns="http://www.w3.org/2000/svg" xmlns:xlink="http://www.w3.org/1999/xlink" xml:space="preserve" xmlns:serif="http://www.serif.com/" style="fill-rule:evenodd;clip-rule:evenodd;stroke-linejoin:round;stroke-miterlimit:2;">
    <g transform="matrix(4.16667,0,0,4.16667,0,0)">
        <circle cx="8" cy="8" r="8" style="fill:rgb(85,153,255);"/>
        <path d="M14.973,7.378C14.762,5.083 13.435,3.032 11.428,1.898C11.336,1.995 11.311,1.938 11.311,2.035C11.034,2.132 10.665,1.938 10.388,1.841C9.712,1.57 8.964,1.536 8.266,1.744C7.989,1.841 7.344,1.938 7.62,2.52C7.804,2.812 8.265,3.103 8.727,2.715C8.911,2.521 9.097,2.23 9.372,2.521C9.465,2.619 9.465,2.716 9.465,2.813C9.372,3.103 9.095,3.201 8.819,3.201C8.449,3.298 8.079,3.201 7.711,3.298C7.341,3.395 6.788,3.492 6.788,3.978C6.788,4.558 6.603,4.656 6.141,4.753C5.771,4.753 5.588,4.947 5.771,5.335C5.864,5.625 6.141,5.625 6.326,5.529C7.064,5.141 7.71,4.171 8.54,5.335L8.724,5.238C8.909,4.462 9.094,4.948 9.278,5.238L9.555,5.528C10.662,4.462 10.385,6.014 10.755,6.304C10.015,6.11 9.185,6.886 8.54,6.401C7.433,5.529 6.695,5.917 5.68,6.789C4.85,7.469 4.665,8.341 4.85,9.117C5.126,10.087 6.14,10.184 6.972,9.99C7.248,9.892 7.802,9.892 7.802,10.086C7.617,10.959 8.632,11.541 8.262,12.51C7.986,13.286 8.448,14.256 9.092,14.547C9.739,14.837 10.292,14.062 10.57,13.383C10.662,13.286 10.57,13.093 10.662,12.995C11.4,12.025 11.308,10.571 12.23,9.601C12.507,9.311 13.43,8.244 12.69,7.371C14.444,6.886 13.8,8.631 14.168,9.408C14.444,8.826 14.628,8.244 14.813,7.758C14.905,7.468 14.973,7.378 14.973,7.378ZM4.948,2.21C5.238,1.904 5.251,1.854 5.542,1.445C4.845,1.703 4.195,2.074 3.619,2.544L3.787,2.721L4.66,2.721C4.66,2.721 4.757,2.721 4.757,2.621L4.854,2.518C4.854,2.518 4.951,2.518 4.951,2.416L5.047,2.314L5.144,2.211C4.854,2.416 4.854,2.314 4.95,2.211C4.95,2.314 4.95,2.314 4.95,2.211C4.95,2.314 4.95,2.211 4.95,2.211L4.948,2.21ZM3.665,11.651L3.666,11.65L3.666,11.374L3.57,11.282C3.475,11.282 3.475,11.189 3.38,11.189C3.285,11.189 3.19,11.096 3.094,11.096L2.903,11.096C2.903,11.096 2.808,11.096 2.808,11.004C2.14,10.634 1.855,9.989 1.664,9.252C1.664,9.067 1.569,8.882 1.569,8.698C1.475,8.605 1.475,8.513 1.379,8.42C1.189,8.236 1.285,7.867 1.475,7.498L1.475,7.314C1.475,7.221 1.475,7.221 1.57,7.129C1.57,7.039 1.57,7.039 1.666,6.946C1.856,6.576 2.238,6.3 2.428,6.023C2.523,5.931 2.523,5.931 2.523,5.839L2.523,5.747C2.618,5.655 2.618,5.47 2.713,5.377C2.713,5.287 2.809,5.101 2.809,5.009C2.809,4.824 2.809,4.732 2.713,4.549C2.617,4.271 2.559,4.031 2.369,3.846C1.511,5.046 0.999,6.392 0.999,7.959C0.999,10.082 1.902,11.965 3.413,13.283C3.413,13.283 3.474,13.309 3.474,13.219L3.474,13.125C3.474,13.033 3.569,13.033 3.569,12.941C3.665,12.571 3.665,12.019 3.665,11.651Z" style="fill:rgb(170,212,0);fill-rule:nonzero;"/>
        <path d="M8,16C3.589,16 0,12.411 0,8C0,3.589 3.589,0 8,0C12.411,0 16,3.589 16,8C16,12.411 12.411,16 8,16ZM8,1C4.14,1 1,4.14 1,8C1,11.859 4.14,15 8,15C11.859,15 15,11.859 15,8C15,4.14 11.859,1 8,1Z" style="fill:rgb(33,33,33);fill-opacity:0.2;fill-rule:nonzero;"/>
        <g transform="matrix(0.941945,0,0,1.23897,0.528811,-3.41603)">
            <rect x="3.768" y="12.962" width="8.377" height="1.244" style="fill:rgb(255,0,0);"/>
        </g>
        <g transform="matrix(5.72045,0,0,7.52427,5.76482,10.7364)">
            <g>
                <path d="M0.08,-0L0.08,-0.716L0.175,-0.716L0.175,-0.422L0.547,-0.422L0.547,-0.716L0.642,-0.716L0.642,-0L0.547,-0L0.547,-0.337L0.175,-0.337L0.175,-0L0.08,-0Z" style="fill:rgb(255,0,0);fill-rule:nonzero;"/>
            </g>
        </g>
    </g>
</svg>
